<svg xmlns="http://www.w3.org/2000/svg" viewBox="0 0 40 40"><defs><style>.cls-1{fill:#fff;}</style></defs><title>back_icon</title><g id="Layer_1" data-name="Layer 1"><path class="cls-1" d="M18.1,8.52A11.18,11.18,0,0,1,29,15.67H27.32a9.61,9.61,0,1,0,0,8H29A11.16,11.16,0,1,1,18.1,8.52Z"/><path class="cls-1" d="M20.35,24.32a.88.88,0,0,1,0,1.22.85.85,0,0,1-.59.26.82.82,0,0,1-.59-.23l-5.34-5.32a.83.83,0,0,1,0-1.17l.25-.25a.81.81,0,0,1,.21-.21l4.87-4.86a.83.83,0,0,1,1.18,0,.74.74,0,0,1,0,1.1L16.8,18.31H32.69a.83.83,0,1,1,0,1.66H16.06Z"/></g></svg>