<svg xmlns="http://www.w3.org/2000/svg" viewBox="0 0 40 40"><defs><style>.cls-1{fill:none;}.cls-2{fill:#fff;}</style></defs><title>create_icon</title><g id="Layer_1" data-name="Layer 1"><rect class="cls-1" x="23.38" y="14.29" width="1.51" height="2.68" transform="translate(-3.99 21.64) rotate(-45)"/><polygon class="cls-1" points="23.72 17.95 21.82 16.05 14.88 22.99 14.87 24.89 16.78 24.87 23.72 17.95"/><path class="cls-2" d="M19.55,30.29a10.07,10.07,0,1,1,9.85-8l1.21,0a11.3,11.3,0,1,0-3.71,6.43l-2,0A10,10,0,0,1,19.55,30.29Z"/><path class="cls-2" d="M31.91,24.6H18.7l8.13-8.13a.59.59,0,0,0,0-.83l-2.7-2.73a.59.59,0,0,0-.83,0l-1.88,1.9-7.53,7.52a.63.63,0,0,0-.17.41v2.74a.59.59,0,0,0,.17.42.56.56,0,0,0,.41.17H17a.56.56,0,0,0,.29-.09.63.63,0,0,0,.14,0H31.93a.7.7,0,0,0,.7-.7A.72.72,0,0,0,31.91,24.6Zm-8.2-10.45,1.9,1.9-1.07,1.07-1.9-1.9ZM14.88,23l6.94-6.94,1.9,1.9-6.94,6.93H14.87Z"/></g></svg>