<svg xmlns="http://www.w3.org/2000/svg" viewBox="0 0 40 40"><defs><style>.cls-1{fill:#fff;}</style></defs><title>Artboard 44</title><g id="Layer_1" data-name="Layer 1"><path class="cls-1" d="M20,30.8A10.8,10.8,0,1,1,30.8,20,10.81,10.81,0,0,1,20,30.8ZM20,10.6A9.4,9.4,0,1,0,29.4,20,9.41,9.41,0,0,0,20,10.6Z"/><path class="cls-1" d="M20.17,18.53c-.83-.85-1.62-1.68-2.43-2.48a1.24,1.24,0,0,0-1.66-.2c-.48.48-.42,1,.21,1.6l2.48,2.47c-.92.92-1.8,1.77-2.65,2.65A1.06,1.06,0,0,0,16,24.08,1.09,1.09,0,0,0,17.55,24l2.63-2.64,2.48,2.5c.56.56,1.17.67,1.62.3s.38-1-.13-1.64a4.84,4.84,0,0,0-.37-.37L21.57,19.9l2.65-2.61A.93.93,0,0,0,24.4,16c-.36-.51-.85-.42-1.33-.23a1.87,1.87,0,0,0-.59.43C21.73,16.93,21,17.7,20.17,18.53Z"/><path class="cls-1" d="M20.17,18.53c.81-.82,1.56-1.59,2.32-2.35a1.87,1.87,0,0,1,.59-.43c.47-.19,1-.28,1.33.23a.93.93,0,0,1-.19,1.32L21.57,19.9,23.8,22.1a4.84,4.84,0,0,1,.37.37c.51.62.55,1.29.13,1.64s-1.06.26-1.62-.3l-2.48-2.5L17.55,24a1.09,1.09,0,0,1-1.51.12,1.06,1.06,0,0,1,.08-1.53c.85-.88,1.73-1.73,2.65-2.65l-2.48-2.47c-.63-.63-.69-1.11-.21-1.6a1.24,1.24,0,0,1,1.66.2C18.55,16.85,19.34,17.68,20.17,18.53Z"/></g></svg>