<svg xmlns="http://www.w3.org/2000/svg" viewBox="0 0 40 40"><defs><style>.cls-1{fill:#fff;}</style></defs><title>join_icon</title><g id="Layer_1" data-name="Layer 1"><path class="cls-1" d="M22.31,8.66a11.18,11.18,0,0,0-10.89,7.15h1.67a9.61,9.61,0,1,1,0,8H11.43A11.16,11.16,0,1,0,22.31,8.66Z"/><path class="cls-1" d="M20.06,24.46a.88.88,0,0,0,0,1.22.85.85,0,0,0,.59.26.82.82,0,0,0,.59-.23l5.34-5.32a.83.83,0,0,0,0-1.17L26.33,19a.81.81,0,0,0-.21-.21l-4.87-4.86a.83.83,0,0,0-1.18,0,.74.74,0,0,0,0,1.1l3.55,3.46H7.72a.83.83,0,1,0,0,1.66H24.35Z"/></g></svg>