<svg xmlns="http://www.w3.org/2000/svg" viewBox="0 0 40 40"><defs><style>.cls-1{fill:#fff;}</style></defs><title>player_icon</title><g id="Layer_1" data-name="Layer 1"><path class="cls-1" d="M27.07,13.14a9.72,9.72,0,0,0-16,10.17A.4.4,0,0,0,11.8,23a8.93,8.93,0,1,1,14.87,3.12l-.06.06-.1.11a8.94,8.94,0,0,1-12.62,0l-.05-.06s0-.07,0-.11,0-.16,0-.24v-.08c0-.05,0-.11,0-.16v-.33l0-.13,0-.1,0-.13,0-.1,0-.13,0-.1,0-.12,0-.1,0-.12,0-.1,0-.12,0-.1,0-.12,0-.1,0-.11,0-.1.05-.11,0-.09.06-.11,0-.09.06-.11.05-.09.06-.11.05-.09.07-.1.06-.09.07-.1.06-.08.07-.1.06-.08.08-.1.07-.08.08-.1.07-.08.09-.09.07-.07.09-.09.07-.07.1-.09.07-.07.1-.09.07-.06.11-.08.07-.06.11-.08.07-.05.13-.09.06,0,.17-.11,0,0,.2-.12.07,0,.14-.07.09,0,.11-.05a3.85,3.85,0,0,0,5.33,0A6.44,6.44,0,0,1,26,23.6a.4.4,0,1,0,.72-.32,7.13,7.13,0,0,0-3.36-3.53,3.86,3.86,0,0,0-3.19-6,.4.4,0,0,0,0,.79,3.07,3.07,0,0,1,2.28,5.13h0a3.06,3.06,0,0,1-4.56,0h0A3.06,3.06,0,0,1,18,15.4a.4.4,0,1,0-.56-.56A3.86,3.86,0,0,0,17,19.75h0l-.09,0-.14.07-.1.05-.13.07-.1.06-.12.08-.1.06-.12.08-.1.07-.11.08-.09.07-.11.09-.09.08-.1.09-.09.08-.1.09-.09.08-.1.1-.08.08-.09.1-.08.09-.09.11-.07.09-.09.11-.07.08-.09.12-.06.08-.11.16,0,0-.14.21,0,.07L14,22.6l0,.09-.07.13,0,.1-.06.13,0,.1-.06.13,0,.11-.05.13,0,.11,0,.13,0,.11,0,.13,0,.11,0,.13,0,.11,0,.14,0,.11,0,.14,0,.11,0,.14,0,.11,0,.15v.11c0,.05,0,.1,0,.16v.1c0,.06,0,.12,0,.18v.09c0,.09,0,.18,0,.26s0,.19,0,.29a.43.43,0,0,0,0,.07h0l0,.06h0l0,.06h0l0,0h0l.05.06.12.13a9.73,9.73,0,0,0,13.74,0l.12-.13.05-.06a9.72,9.72,0,0,0-.17-13.56Zm0,0"/></g></svg>