<svg xmlns="http://www.w3.org/2000/svg" viewBox="0 0 40 40"><defs><style>.cls-1{fill:#fff;}</style></defs><title>view_icon</title><g id="Layer_1" data-name="Layer 1"><path class="cls-1" d="M31.18,17.36A11.15,11.15,0,0,0,20.12,9.2,11.28,11.28,0,0,0,9.73,17.47a3.19,3.19,0,0,1,.74-.09,3.12,3.12,0,0,1,.83.12,9.59,9.59,0,0,1,18.42.32A2.8,2.8,0,0,1,31.18,17.36Z"/><path class="cls-1" d="M20.62,14.27a5.94,5.94,0,1,0,5.85,5.15A5.91,5.91,0,0,0,20.62,14.27Zm4.6,5.9a4.7,4.7,0,1,1-.08-.75A4.61,4.61,0,0,1,25.22,20.17Z"/><path class="cls-1" d="M29.67,22.74a9.59,9.59,0,0,1-18.16.36,3,3,0,0,1-1,.19,3.21,3.21,0,0,1-.51-.05A11.27,11.27,0,0,0,20.18,31a11.15,11.15,0,0,0,10.93-7.75A2.78,2.78,0,0,1,29.67,22.74Z"/></g></svg>